<svg viewBox="0 0 128 128" xml:space="preserve" xmlns="http://www.w3.org/2000/svg"><g fill="#3EBBC4"><g opacity=".3"><path d="M31.1 95.8c-3.4 0-11.9-2-18.3-20l-.5-1.5-1.6.2c-1.2.1-2.1-.2-2.7-1-.5-.7-.6-1.7-.3-2.5.3-.6.9-1 1.8-1.1l-.1-1.5h29.5v-4H7.5v-1l3.1-.9v-3.1c0-6.9 3.5-13.4 9.2-17.1v7.8h4V38.9c0-.1.1-.2.2-.2h10.4v-4H24.1c-1.9 0-3.5 1.2-4 3-8.2 4.1-13.5 12.5-13.5 21.8v.1l-3.1.9v8h1.1c-.2.2-.4.5-.6.8-1 2.1-.7 4.6.6 6.5 1.1 1.6 2.8 2.5 4.8 2.6C13.3 88.7 18 94 22.2 96.8l-15 7.2c-3.2 1.5-5.3 4.8-5.3 8.4V126h25v-4H15.5v-1.7h-4v1.7H6v-9.5c0-2 1.2-3.9 3-4.8l13.2-6.4c.6 1.9 1.9 3.6 3.6 4.8l2.2-3.3c-1.4-.9-2.2-2.4-2.3-4 2.2.8 4 1.1 5.3 1.1 10.9 0 17.6-12.2 20-17.4l-3.6-1.7c-6.2 13.5-13.5 15-16.3 15zM120.7 104.1l-15-7.2c4.2-2.8 8.9-8.2 12.8-18.4 2-.2 3.7-1.1 4.8-2.6 1.4-1.9 1.6-4.4.6-6.5-.1-.3-.3-.6-.5-.9h1.1v-8l-3.1-.9v-.1c0-9.2-5.3-17.7-13.5-21.8-.6-1.7-2.1-3-4-3H93.5v4h10.4c.1 0 .2.1.2.2v11.2h4v-7.8c5.7 3.7 9.2 10.2 9.2 17.1v3.1l3.1.9v1H89.1v4h29.5l-.1 1.5c.9.1 1.5.4 1.8 1.1.3.7.2 1.8-.3 2.5-.6.8-1.5 1.1-2.7 1l-1.6-.2-.5 1.5c-6.5 18.1-15 20-18.3 20-2.8 0-10.1-1.5-16.3-15.1L77 82.4c2.4 5.2 9.1 17.4 20 17.4 1.3 0 3.1-.2 5.3-1.1-.1 1.6-1 3.1-2.3 4l2.2 3.3c1.7-1.2 3-2.9 3.6-4.8l13.2 6.4c1.8.9 3 2.8 3 4.8v9.5h-5.5v-1.7h-4v1.7H101v4h25v-13.5c0-3.5-2.1-6.8-5.3-8.3z"/></g><path d="M96.2 97.5 77 88.2v-2.8c5.3-4 11.1-11.3 16-24.3 2.6-.1 4.8-1.3 6.3-3.4 1.9-2.6 2.2-6.2.9-9-.9-1.9-2.5-3.3-4.5-3.9-.5-23.2-12.3-37-31.7-37S32.9 21.5 32.3 44.7v.1c-2 .6-3.6 2-4.5 3.9-1.3 2.8-1 6.4.9 9 1.5 2.1 3.7 3.2 6.3 3.4 4.9 13 10.7 20.3 16 24.3v2.8l-19.2 9.2c-4.1 2-6.8 6.2-6.8 10.8V126h78v-17.7c0-4.6-2.7-8.8-6.8-10.8zm.4-47.2c.7 1.5.5 3.6-.5 5-.3.5-.9 1-1.6 1.3.6-2.4 1-5.2 1.2-7.6.3.4.6.8.9 1.3zM64 11.8c17.2 0 27.3 12.1 27.7 33.2-11.6 2.6-21.5-2.5-30.2-7-7.3-3.8-13.6-7.1-19.5-4.9-1.8.7-3.4 1.8-4.9 3.5C39.7 20.7 49.2 11.8 64 11.8zM31.9 55.3c-1-1.4-1.2-3.5-.5-5 .2-.5.6-.9 1-1.2.2 2.8.7 5.3 1.3 7.6-.8-.3-1.4-.8-1.8-1.4zm6.4 3.1c-1-3.6-2-7.3-2-12v-.9c2.1-4.8 4.4-7.7 7.1-8.7 4.2-1.6 9.8 1.3 16.3 4.7 7.2 3.7 15.7 8.2 25.6 8.2 2 0 4.1-.2 6.3-.6-.3 3-.9 6.8-1.8 9.3-9 25.1-21 27.8-25.8 27.8-4.7 0-16.7-2.7-25.7-27.8zM64 90.2c2.1 0 5.3-.4 9-2.3v2.2l-6.6 6.3-.1.1c-1.2 1.3-3.4 1.3-4.6 0L55 90.1v-2.2c3.7 1.9 6.9 2.3 9 2.3zM42 122v-3h-4v3h-9v-13.7c0-3.1 1.8-5.9 4.5-7.2l18-8.7 7.2 6.9c.3.3.6.6 1 .9L57.2 122H42zm19.2 0 2.4-20.5h.6l2.4 20.5h-5.4zm37.8 0h-9v-3h-4v3H70.8l-2.6-21.8c.4-.3.7-.5 1-.9l7.2-6.9 18 8.7c2.8 1.3 4.5 4.2 4.5 7.2V122z"/></g></svg>